HIERARCHY
ROOT Hips
{
	OFFSET -3.958830 18.904000 13.208200
	CHANNELS 6 Xposition Yposition Zposition Zrotation Yrotation Xrotation 
	JOINT LHipJoint
	{
		OFFSET 0.000000 0.000000 0.000000
		CHANNELS 3 Zrotation Yrotation Xrotation
		JOINT LeftUpLeg
		{
			OFFSET 1.800000 -1.400000 0.085000
			CHANNELS 3 Zrotation Yrotation Xrotation
			JOINT LeftLeg
			{
				OFFSET 2.215000 -6.000000 0.000000
				CHANNELS 3 Zrotation Yrotation Xrotation
				JOINT LeftFoot
				{
					OFFSET 2.500000 -6.900000 0.000000
					CHANNELS 3 Zrotation Yrotation Xrotation
					JOINT LeftToeBase
					{
						OFFSET 0.200000 -0.500000 1.950000
						CHANNELS 3 Zrotation Yrotation Xrotation
						End Site
						{
							OFFSET 0.000000 0.000000 0.000000
						}
					}
				}
			}
		}
	}
	JOINT RHipJoint
	{
		OFFSET 0.000000 0.000000 0.000000
		CHANNELS 3 Zrotation Yrotation Xrotation
		JOINT RightUpLeg
		{
			OFFSET -1.800000 -1.400000 0.085000
			CHANNELS 3 Zrotation Yrotation Xrotation
			JOINT RightLeg
			{
				OFFSET -2.215000 -6.000000 0.000000
				CHANNELS 3 Zrotation Yrotation Xrotation
				JOINT RightFoot
				{
					OFFSET -2.500000 -6.900000 0.000000
					CHANNELS 3 Zrotation Yrotation Xrotation
					JOINT RightToeBase
					{
						OFFSET -0.200000 -0.500000 1.950000
						CHANNELS 3 Zrotation Yrotation Xrotation
						End Site
						{
							OFFSET 0.000000 0.000000 0.000000
						}
					}
				}
			}
		}
	}
	JOINT LowerBack
	{
		OFFSET 0.000000 0.000000 0.000000
		CHANNELS 3 Zrotation Yrotation Xrotation
		JOINT Spine
		{
			OFFSET -0.087000 1.940000 -0.288900
			CHANNELS 3 Zrotation Yrotation Xrotation
			JOINT Spine1
			{
				OFFSET 0.000000 1.950000 0.060000
				CHANNELS 3 Zrotation Yrotation Xrotation
				JOINT Neck
				{
					OFFSET 0.000000 0.000000 0.000000
					CHANNELS 3 Zrotation Yrotation Xrotation
					JOINT Neck1
					{
						OFFSET 0.000000 1.600000 0.340000
						CHANNELS 3 Zrotation Yrotation Xrotation
						JOINT Head
						{
							OFFSET 0.000000 1.667000 -0.240000
							CHANNELS 3 Zrotation Yrotation Xrotation
							End Site
							{
								OFFSET 0.000000 0.000000 0.000000
							}
						}
					}
				}
				JOINT LeftShoulder
				{
					OFFSET 0.000000 0.000000 0.000000
					CHANNELS 3 Zrotation Yrotation Xrotation
					JOINT LeftArm
					{
						OFFSET 2.700000 1.550000 -0.730000
						CHANNELS 3 Zrotation Yrotation Xrotation
						JOINT LeftForeArm
						{
							OFFSET 5.450000 0.000000 0.000000
							CHANNELS 3 Zrotation Yrotation Xrotation
							JOINT LeftHand
							{
								OFFSET 3.450000 0.000000 0.000000
								CHANNELS 3 Zrotation Yrotation Xrotation
								JOINT LeftHandIndex1
								{
									OFFSET 0.750000 0.000000 0.000000
									CHANNELS 3 Zrotation Yrotation Xrotation
									End Site
									{
										OFFSET 0.000000 0.000000 0.000000
									}
								}
							}
						}
					}
				}
				JOINT RightShoulder
				{
					OFFSET 0.000000 0.000000 0.000000
					CHANNELS 3 Zrotation Yrotation Xrotation
					JOINT RightArm
					{
						OFFSET -2.700000 1.550000 -0.730000
						CHANNELS 3 Zrotation Yrotation Xrotation
						JOINT RightForeArm
						{
							OFFSET -5.450000 0.000000 0.000000
							CHANNELS 3 Zrotation Yrotation Xrotation
							JOINT RightHand
							{
								OFFSET -3.450000 0.000000 0.000000
								CHANNELS 3 Zrotation Yrotation Xrotation
								JOINT RightHandIndex1
								{
									OFFSET -0.750000 0.000000 0.000000
									CHANNELS 3 Zrotation Yrotation Xrotation
									End Site
									{
										OFFSET 0.000000 0.000000 0.000000
									}
								}
							}
						}
					}
				}
			}
		}
	}
}
MOTION
Frames: 7
Frame Time: 0.016667
0.496030 17.278970 -6.077650 1.310004 4.714900 -5.255141 -14.571725 12.867465 3.178031 0.665871 -1.576859 -6.685130 -14.276456 8.369128 16.798352 -0.050291 4.925581 2.827933 0.231920 0.170140 0.012610 18.833950 -11.810345 2.294936 -0.219414 1.254109 -18.928306 -9.752658 -3.049657 38.226074 -0.566345 -4.981790 2.664625 0.063450 0.052640 -0.087030 -5.314538 0.150512 -7.045276 28.845264 -15.112403 13.139851 -36.200294 -5.848452 11.148145 13.656669 -8.683743 -12.384226 -21.504409 13.587702 50.806090 1.846480 -0.306280 -6.591920 -17.534741 1.035021 1.083861 -53.415257 3.662723 -15.398059 -2.850061 -42.611232 -2.835232 -3.236265 3.052831 0.490220 -0.149000 0.050900 0.090650 -11.011176 6.243468 11.487490 8.063244 6.838402 0.305701 -8.493387 6.873500 0.133202 2.445493 -1.085212 -0.139760 0.304430 0.092800 -0.093140 
0.501870 17.264580 -6.065200 1.553021 5.380521 -5.288077 -14.578603 12.861072 3.186266 0.649969 -1.552952 -6.464517 -14.675746 8.519122 16.868692 0.011182 4.972196 2.814331 0.235720 0.190570 -0.005040 18.833604 -11.798385 2.263587 -0.525330 1.203734 -19.338799 -9.827530 -3.150356 39.177602 -0.591372 -5.116835 2.614825 0.061920 0.053610 -0.087310 -5.319340 0.105115 -7.037741 28.785582 -15.031465 12.885909 -35.852596 -5.808620 11.214035 13.250305 -8.658164 -12.665211 -21.712076 13.525527 50.408322 2.740260 -0.550760 -6.052660 -17.748346 0.387169 1.445503 -53.213586 4.128992 -15.723596 -4.101141 -43.402751 -2.506430 -3.201931 3.105902 0.466730 -0.153990 0.054240 0.106600 -9.939858 6.507951 11.666334 5.813216 5.168561 0.503281 -6.914102 5.076888 0.238405 2.494839 -1.021860 -0.118060 0.287680 0.075260 -0.069410 
0.511120 17.246850 -6.043320 1.795376 7.213054 -5.832076 -14.603392 12.902958 3.209125 0.917704 -1.463675 -5.603252 -15.226954 8.717811 16.770638 0.064199 5.100794 2.775998 0.234490 0.182790 -0.018250 18.807530 -11.790357 2.193321 -1.291061 0.919951 -19.455434 -9.337467 -3.753862 40.992060 -0.651842 -5.409395 2.508784 0.044760 0.055410 -0.077970 -5.292901 -0.058676 -7.054741 28.517194 -15.196937 13.057699 -35.235084 -5.999787 11.175782 12.906329 -8.403541 -13.158979 -21.657414 13.231855 50.635736 3.820510 -1.058630 -5.770810 -17.980047 -0.435942 1.846060 -53.154793 4.727197 -16.254382 -5.555961 -44.645382 -2.193844 -3.161634 3.151372 0.478270 -0.164690 0.060800 0.115780 -8.974341 6.818325 12.141208 3.751008 2.324236 0.455696 -4.901517 3.360956 0.301490 2.519693 -0.929376 -0.108460 0.273580 0.073950 -0.061300 
0.520620 17.228540 -6.024500 2.075337 9.001416 -5.993660 -14.621963 12.916894 3.228661 0.950372 -1.408565 -5.100196 -15.612774 8.829876 16.636313 0.108709 5.166304 2.766631 0.222370 0.173950 -0.029870 18.790032 -11.807922 2.120808 -2.007421 0.561743 -19.596153 -9.087529 -4.184599 41.988923 -0.681200 -5.581379 2.456515 0.030200 0.061190 -0.080550 -5.290615 -0.134039 -7.061099 28.423011 -15.190633 12.722620 -34.999049 -6.093827 11.152989 12.711130 -8.136272 -13.283467 -21.190131 12.588163 50.762256 4.063300 -1.373190 -5.511790 -17.785043 -0.397340 1.997411 -53.153118 5.214942 -16.601574 -7.793999 -46.242531 -1.463618 -3.138339 3.174066 0.474970 -0.164370 0.063360 0.123430 -8.795335 6.476943 12.417790 3.489700 0.398279 0.344656 -3.663755 2.557240 0.288724 2.530682 -0.872587 -0.105530 0.274090 0.068800 -0.052730 
0.526330 17.217300 -6.010440 2.185470 10.600432 -6.208470 -14.639753 12.929982 3.244828 1.189751 -1.411611 -4.727564 -16.026499 8.987266 16.676576 0.140821 5.255841 2.739639 0.216770 0.165300 -0.023370 18.771790 -11.818752 2.068114 -2.416892 0.247847 -19.543848 -8.908956 -4.532424 42.721083 -0.705775 -5.714807 2.415841 0.019850 0.052420 -0.082350 -5.286127 -0.197815 -7.077383 28.341212 -15.150534 12.446950 -34.644980 -6.145271 11.235396 12.608232 -7.767220 -13.303853 -20.419443 11.842930 51.238583 3.794100 -1.502890 -5.363300 -17.545109 -0.293068 2.107818 -53.256448 5.503002 -16.802979 -10.269008 -47.657476 -0.570559 -3.122321 3.192288 0.476460 -0.165400 0.067470 0.120640 -8.838928 6.033730 12.586129 3.924853 -0.922933 0.175485 -3.174994 2.147485 0.272037 2.539077 -0.842739 -0.104050 0.268730 0.063760 -0.057330 
0.528000 17.208040 -6.002420 2.392037 11.756483 -6.373938 -14.651166 12.944726 3.276616 1.262803 -1.468272 -4.537077 -16.405957 9.139599 16.847169 0.149765 5.343461 2.704160 0.208180 0.149540 -0.000080 18.754027 -11.838051 2.021094 -2.970763 -0.045239 -19.381640 -8.512705 -4.923875 43.081481 -0.718008 -5.787912 2.384709 0.011580 0.030600 -0.085700 -5.283534 -0.245763 -7.114510 27.957600 -14.960040 12.431565 -34.254566 -6.059517 11.223873 12.535577 -7.121116 -13.224649 -19.014495 10.800447 52.058237 3.122800 -1.410540 -5.680350 -17.637803 -0.444698 2.146879 -52.774696 5.635723 -16.716951 -12.085141 -48.020062 0.172173 -3.117837 3.185213 0.490420 -0.170330 0.076770 0.099630 -8.642464 5.601447 12.708170 4.806294 -2.277556 -0.177579 -3.928283 2.669688 0.300823 2.541511 -0.848824 -0.111180 0.266160 0.067000 -0.077410 
0.529110 17.202140 -5.999500 2.318666 12.528996 -6.642591 -14.657523 12.964756 3.279486 1.285839 -1.474577 -4.307088 -16.225099 9.115693 16.948519 0.133136 5.352224 2.695287 0.210090 0.139920 0.024810 18.741321 -11.856415 2.006322 -3.234598 -0.223583 -19.153356 -8.010946 -5.303560 43.323426 -0.730643 -5.841834 2.365718 0.008140 0.009770 -0.088140 -5.284266 -0.266970 -7.135053 27.969090 -14.908015 12.454981 -34.040170 -5.976803 11.303802 12.552739 -6.567827 -13.278109 -17.919673 10.005096 52.987956 2.867740 -1.562390 -6.069870 -17.714221 -0.835603 2.216789 -52.622101 5.522347 -16.642548 -12.256035 -47.739435 0.236825 -3.115847 3.162083 0.510890 -0.177960 0.085840 0.083440 -8.615557 5.573051 12.875496 5.187676 -3.152646 -0.343573 -3.763553 2.861251 0.316980 2.527927 -0.829257 -0.118010 0.265350 0.067530 -0.097780 
